<?xml version="1.0" encoding="utf-8"?>
<!-- Generator: Adobe Illustrator 19.0.0, SVG Export Plug-In . SVG Version: 6.00 Build 0)  -->
<svg version="1.1" id="Layer_1" xmlns="http://www.w3.org/2000/svg" xmlns:xlink="http://www.w3.org/1999/xlink" x="0px" y="0px"
	 viewBox="0 0 400 400" style="enable-background:new 0 0 400 400;" xml:space="preserve">
<style type="text/css">
	.st0{fill:#4E43E1;}
</style>
<path id="XMLID_95_" class="st0" d="M-1349.4,221.6h-400v-400h400V221.6z"/>
<path id="XMLID_254_" class="st0" d="M-531.9,581.6h-351c-13.5,0-24.5-11-24.5-24.5v-351c0-13.5,11-24.5,24.5-24.5h351
	c13.5,0,24.5,11,24.5,24.5v351C-507.4,570.6-518.4,581.6-531.9,581.6z"/>
<path id="XMLID_94_" class="st0" d="M-595.4-242.4h-400v-200h400V-242.4z"/>
<path id="XMLID_96_" class="st0" d="M-79.4-226.4h-360c-11,0-20-8.9-20-20v-160c0-11,8.9-20,20-20h360c11,0,20,8.9,20,20v160
	C-59.4-235.4-68.3-226.4-79.4-226.4z"/>
<path id="XMLID_307_" class="st0" d="M22.2,258.8c10.3-11.3,22.6-21.2,33.6-32.1c12.9-12.8,23.6-28.7,30.2-46.3
	c7.9-21.4,5-45.1,10.9-67c14.1-52.6,67.6-93.4,118.6-106.4c6.1-1.6,105-29.2,153.2,38.9c31.1,44,38.7,106.5,24.4,158.8
	C366.6,301.3,272.3,363.6,182,387.3c-47.7,12.5-123.8,26.7-161.8-15.6C-8.4,339.9-5.6,289.4,22.2,258.8z"/>
</svg>
