<?xml version="1.0" encoding="utf-8"?>
<!-- Generator: Adobe Illustrator 19.0.0, SVG Export Plug-In . SVG Version: 6.00 Build 0)  -->
<svg version="1.1" id="Layer_1" xmlns="http://www.w3.org/2000/svg" xmlns:xlink="http://www.w3.org/1999/xlink" x="0px" y="0px"
	 viewBox="0 0 400 400" style="enable-background:new 0 0 400 400;" xml:space="preserve">
<style type="text/css">
	.st0{fill:#4E43E1;}
</style>
<path id="XMLID_95_" class="st0" d="M-442,40h-400v-400h400V40z"/>
<path id="XMLID_254_" class="st0" d="M375.5,400h-351C11,400,0,389,0,375.5v-351C0,11,11,0,24.5,0h351C389,0,400,11,400,24.5v351
	C400,389,389,400,375.5,400z"/>
<path id="XMLID_94_" class="st0" d="M312-424H-88v-200h400V-424z"/>
<path id="XMLID_96_" class="st0" d="M828-408H468c-11,0-20-8.9-20-20v-160c0-11,8.9-20,20-20h360c11,0,20,8.9,20,20v160
	C848-416.9,839.1-408,828-408z"/>
</svg>
