<?xml version="1.0" encoding="utf-8"?>
<!-- Generator: Adobe Illustrator 19.0.0, SVG Export Plug-In . SVG Version: 6.00 Build 0)  -->
<svg version="1.0" id="Layer_1" xmlns="http://www.w3.org/2000/svg" xmlns:xlink="http://www.w3.org/1999/xlink" x="0px" y="0px"
	 viewBox="0 0 462.4 631.6" style="enable-background:new 0 0 462.4 631.6;" xml:space="preserve">
<style type="text/css">
	.st0{fill:#4E43E1;}
</style>
<path id="XMLID_3_" class="st0" d="M0,19.3v612.4h462.4c0,0,0-560,0-560c-7.7,0.8-15.1,2.7-22.2,5.8c-6.6,2.8-13.4,9.1-20.9,9.4
	c-7.1,0.3-13.6-5.6-17.7-10.6c-2.9-4.4-11.4-16.2-25.5-18.5c-24.4-4-43.6,20-63,30.1c-12.4,6.5-26.6,8.9-40.4,8.3
	c-23.2-1-45.9-13.7-64.2-27.2c-17.3-12.8-31.8-29.6-50.4-41C126.4,8.7,98.9,3.4,87.7,1.8c-24.2-3.6-40.6-0.7-44.4,0
	C23.5,5.5,8.8,13.5,0,19.3z"/>
</svg>
