<?xml version="1.0" encoding="utf-8"?>
<!-- Generator: Adobe Illustrator 19.0.0, SVG Export Plug-In . SVG Version: 6.00 Build 0)  -->
<svg version="1.0" id="Layer_1" xmlns="http://www.w3.org/2000/svg" xmlns:xlink="http://www.w3.org/1999/xlink" x="0px" y="0px"
	 viewBox="0 0 25.1 18.7" style="enable-background:new 0 0 25.1 18.7;" xml:space="preserve">
<style type="text/css">
	.st0{fill:#FFFFFF;}
</style>
<g id="XMLID_2_">
	<g id="XMLID_1_">
		<path id="XMLID_11_" class="st0" d="M22.5,18.7h-20c-1.4,0-2.5-1.1-2.5-2.5V2.5C0,1.1,1.1,0,2.5,0h20c1.4,0,2.5,1.1,2.5,2.5v13.7
			C25.1,17.6,23.9,18.7,22.5,18.7z M2.5,2C2.2,2,2,2.2,2,2.5v13.7c0,0.3,0.2,0.5,0.5,0.5h20c0.3,0,0.5-0.2,0.5-0.5V2.5
			c0-0.3-0.2-0.5-0.5-0.5H2.5z"/>
	</g>
	<g id="XMLID_5_">
		<polygon id="XMLID_10_" class="st0" points="18.5,16.8 10.5,8.9 1.9,16.2 0.6,14.7 10.6,6.1 19.9,15.3 		"/>
	</g>
	<g id="XMLID_3_">
		<polygon id="XMLID_9_" class="st0" points="22.1,15.4 18.4,12 16.7,13.6 15.3,12.2 18.4,9.2 23.5,13.9 		"/>
	</g>
	<g id="XMLID_6_">
		<path id="XMLID_4_" class="st0" d="M15.3,7.9c-1.6,0-2.8-1.3-2.8-2.8s1.3-2.8,2.8-2.8s2.8,1.3,2.8,2.8S16.9,7.9,15.3,7.9z
			 M15.3,4.3c-0.4,0-0.8,0.4-0.8,0.8s0.4,0.8,0.8,0.8s0.8-0.4,0.8-0.8S15.8,4.3,15.3,4.3z"/>
	</g>
</g>
</svg>
