<?xml version="1.0" encoding="utf-8"?>
<!-- Generator: Adobe Illustrator 15.1.0, SVG Export Plug-In . SVG Version: 6.00 Build 0)  -->
<!DOCTYPE svg PUBLIC "-//W3C//DTD SVG 1.1//EN" "http://www.w3.org/Graphics/SVG/1.1/DTD/svg11.dtd">
<svg version="1.1" id="Layer_1" xmlns="http://www.w3.org/2000/svg" xmlns:xlink="http://www.w3.org/1999/xlink" x="0px" y="0px"
	 width="35px" height="35px" viewBox="0 0 35 35" enable-background="new 0 0 35 35" xml:space="preserve">
<path fill="#fff" d="M26.179,11.178L23.82,8.82c-0.311-0.311-0.736-0.487-1.178-0.487h-11.81c-1.381,0-2.5,1.119-2.5,2.5v13.334
	c0,1.379,1.119,2.5,2.5,2.5h13.334c1.379,0,2.5-1.119,2.5-2.5V12.356C26.668,11.915,26.492,11.49,26.179,11.178z M15,10h5.001v1.667
	c0,0.46-0.373,0.833-0.834,0.833h-3.333C15.374,12.5,15,12.125,15,11.667V10L15,10z M21.667,25.001h-8.334v-5.002
	c0-0.46,0.373-0.834,0.833-0.834h6.667c0.459,0,0.833,0.374,0.833,0.834V25.001z M25.002,24.167c0,0.459-0.375,0.834-0.834,0.834
	h-0.835v-5.002c0-1.381-1.117-2.5-2.499-2.5h-6.667c-1.38,0-2.5,1.119-2.5,2.5v5.002h-0.833c-0.461,0-0.833-0.375-0.833-0.834
	V10.833C10,10.372,10.372,10,10.833,10h2.5v1.667c0,1.381,1.12,2.5,2.5,2.5h3.333c1.381,0,2.501-1.119,2.501-2.5V10h0.144
	c0.441,0,0.864,0.175,1.178,0.489l1.524,1.523c0.312,0.313,0.489,0.736,0.489,1.178V24.167L25.002,24.167z"/>
</svg>
