<?xml version="1.0" encoding="utf-8"?>
<!-- Generator: Adobe Illustrator 15.1.0, SVG Export Plug-In . SVG Version: 6.00 Build 0)  -->
<!DOCTYPE svg PUBLIC "-//W3C//DTD SVG 1.1//EN" "http://www.w3.org/Graphics/SVG/1.1/DTD/svg11.dtd">
<svg version="1.1" id="Layer_1" xmlns="http://www.w3.org/2000/svg" xmlns:xlink="http://www.w3.org/1999/xlink" x="0px" y="0px"
	 width="50px" height="50px" viewBox="375 375 50 50" enable-background="new 375 375 50 50" xml:space="preserve">
<path fill="#111111" d="M410.785,407.758c2.637-3.297,4.215-7.479,4.215-12.029c0-10.643-8.629-19.27-19.271-19.27
	s-19.27,8.627-19.27,19.27S385.086,415,395.729,415c4.55,0,8.732-1.578,12.029-4.215l12.129,12.13c0.836,0.836,2.192,0.836,3.028,0
	s0.836-2.192,0-3.028L410.785,407.758z M395.729,410.738c-8.289,0-15.009-6.72-15.009-15.01c0-8.289,6.72-15.009,15.009-15.009
	c8.29,0,15.01,6.72,15.01,15.009C410.738,404.019,404.019,410.738,395.729,410.738z"/>
</svg>
