<!DOCTYPE svg PUBLIC "-//W3C//DTD SVG 1.1//EN" "http://www.w3.org/Graphics/SVG/1.1/DTD/svg11.dtd">
<!-- Uploaded to: SVG Repo, www.svgrepo.com, Transformed by: SVG Repo Mixer Tools -->
<svg fill="#fff" height="64px" width="64px" version="1.1" id="Layer_1" xmlns="http://www.w3.org/2000/svg" xmlns:xlink="http://www.w3.org/1999/xlink" viewBox="0 0 512.00 512.00" xml:space="preserve" stroke="#fff" stroke-width="22.528">
<g id="SVGRepo_bgCarrier" stroke-width="0"/>
<g id="SVGRepo_tracerCarrier" stroke-linecap="round" stroke-linejoin="round"/>
<g id="SVGRepo_iconCarrier"> <g> <g> <path d="M475.241,90.074H39.13C18.204,90.074,0,106.75,0,127.676v255.972c0,20.917,18.204,38.278,39.13,38.278h436.111 c20.926,0,36.759-17.361,36.759-38.278V127.676C512,106.75,496.167,90.074,475.241,90.074z M493.037,383.991 c0,10.477-8.498,18.972-18.981,18.972H37.944c-10.484,0-18.981-8.495-18.981-18.972V128.009c0-10.477,8.498-18.972,18.981-18.972 h436.111c10.484,0,18.981,8.495,18.981,18.972V383.991z"/> </g> </g> <g> <g> <path d="M357.435,247.889l-142.222-99.556c-2.889-2.037-7.268-2.287-10.408-0.639c-3.139,1.63-5.694,4.87-5.694,8.407v199.111 c0,3.537,2.556,6.778,5.694,8.407c1.38,0.722,3.176,1.074,4.676,1.074c1.907,0,3.963-0.574,5.583-1.713l142.296-99.556 c2.537-1.778,4.083-4.676,4.083-7.768S359.972,249.667,357.435,247.889z M218.074,337V174.315l116.204,81.343L218.074,337z"/> </g> </g> </g>
</svg>