<?xml version="1.0" ?><!DOCTYPE svg  PUBLIC '-//W3C//DTD SVG 1.1//EN'  'http://www.w3.org/Graphics/SVG/1.1/DTD/svg11.dtd'><svg height="100%" style="fill-rule:evenodd;clip-rule:evenodd;stroke-linejoin:round;stroke-miterlimit:1.41421;" version="1.1" viewBox="0 0 128 128" width="100%" xml:space="preserve" xmlns="http://www.w3.org/2000/svg" xmlns:serif="http://www.serif.com/" xmlns:xlink="http://www.w3.org/1999/xlink"><rect height="50" id="Download"  stroke="#fff" stroke-width="1.5"   width="50" x="0.151" y="0.917"/><path d="M112.821,63.032c1.163,0.505 1.25,0.708 1.33,1.885c0,9.424 0.09,18.849 -0.001,28.273c-0.171,11.286 -9.922,21.615 -21.862,21.727c-18.803,0.056 -37.607,0.174 -56.41,-0.002c-11.272,-0.173 -21.617,-9.812 -21.726,-21.862c0,0 -0.001,-28.136 -0.001,-28.136c0,0 0.309,-1.691 1.593,-1.958c1.16,-0.241 2.323,0.731 2.407,1.958c0,9.408 -0.084,18.816 0.002,28.224c0.145,9.228 8.116,17.684 17.886,17.776c18.779,0.056 37.558,0.174 56.336,-0.001c9.2,-0.142 17.68,-7.989 17.776,-17.887c0,0 0,-28.112 0,-28.112c0,0 0.633,-2.455 2.67,-1.885Z" style="fill-rule:nonzero;"/><path d="M64.526,14.952c1.329,0.341 1.559,0.907 1.625,1.965l0,75.172l28.586,-28.586c0,0 0.833,-0.65 1.603,-0.577c1.456,0.137 2.355,2.124 1.226,3.405l-32,32c-1.199,1.058 -3.303,0.379 -3.415,-1.414l0,-80c0.076,-1.198 1.057,-2.131 2.375,-1.965Z" style="fill-rule:nonzero;"/><path d="M32.308,62.923c0.457,0.054 0.74,0.102 1.258,0.58l32,32c1.419,1.535 -0.821,4.684 -2.829,2.828l-32,-32c-0.73,-0.79 -0.615,-1.117 -0.58,-1.571c0.1,-1.268 1.897,-1.847 2.151,-1.837Z"  /></svg>