<?xml version="1.0" encoding="utf-8"?>
<!-- Generator: Adobe Illustrator 15.1.0, SVG Export Plug-In  -->
<!DOCTYPE svg PUBLIC "-//W3C//DTD SVG 1.1//EN" "http://www.w3.org/Graphics/SVG/1.1/DTD/svg11.dtd" [
	<!ENTITY ns_flows "http://ns.adobe.com/Flows/1.0/">
]>
<svg version="1.1"
	 xmlns="http://www.w3.org/2000/svg" xmlns:xlink="http://www.w3.org/1999/xlink" xmlns:a="http://ns.adobe.com/AdobeSVGViewerExtensions/3.0/"
	 x="0px" y="0px" width="48px" height="48px" viewBox="0 -2.616 48 48" enable-background="new 0 -2.616 48 48"
	 xml:space="preserve">
<defs>
</defs>
<path fill="#FFFFFF" d="M42,45.384H28v-13h-8v13H6v-21c0-0.552,0.447-1,1-1s1,0.448,1,1v19h10v-13h12v13h10v-18c0-0.552,0.447-1,1-1
	s1,0.448,1,1V45.384z"/>
<path fill="#FFFFFF" d="M47,24.384c-0.249,0-0.497-0.092-0.691-0.277L24,2.768L1.691,24.106c-0.399,0.381-1.032,0.368-1.414-0.031
	c-0.382-0.398-0.367-1.031,0.031-1.414L24,0l23.691,22.661c0.397,0.382,0.412,1.015,0.031,1.414
	C47.525,24.28,47.264,24.384,47,24.384z"/>
<path fill="#FFFFFF" d="M39,12.384c-0.553,0-1-0.448-1-1v-6h-6c-0.553,0-1-0.448-1-1s0.447-1,1-1h8v8
	C40,11.936,39.553,12.384,39,12.384z"/>
</svg>
